<svg width="70" height="70" viewBox="0 0 70 70" fill="none" xmlns="http://www.w3.org/2000/svg">
<path d="M51.4792 18.5208C46.725 13.7667 39.9875 11.025 32.5792 11.7833C21.875 12.8625 13.0667 21.5542 11.8708 32.2583C10.2667 46.4042 21.2042 58.3333 35 58.3333C44.3042 58.3333 52.2958 52.8792 56.0292 45.0333C56.9625 43.0792 55.5625 40.8333 53.4042 40.8333C52.325 40.8333 51.3042 41.4167 50.8375 42.3792C47.5417 49.4667 39.6375 53.9583 31.0042 52.0333C24.5292 50.6042 19.3083 45.325 17.9375 38.85C15.4875 27.5333 24.0917 17.5 35 17.5C39.8417 17.5 44.1583 19.5125 47.3083 22.6917L42.9042 27.0958C41.0667 28.9333 42.35 32.0833 44.9458 32.0833H55.4167C57.0208 32.0833 58.3333 30.7708 58.3333 29.1667V18.6958C58.3333 16.1 55.1833 14.7875 53.3458 16.625L51.4792 18.5208Z" fill="white"/>
</svg>
